<?xml version="1.0" encoding="UTF-8" standalone="no"?>
<!DOCTYPE svg PUBLIC "-//W3C//DTD SVG 1.1//EN" "http://www.w3.org/Graphics/SVG/1.1/DTD/svg11.dtd">
<svg width="100%" height="100%" viewBox="0 0 296 296" version="1.1" xmlns="http://www.w3.org/2000/svg" xmlns:xlink="http://www.w3.org/1999/xlink" xml:space="preserve" xmlns:serif="http://www.serif.com/" style="fill-rule:evenodd;clip-rule:evenodd;stroke-linejoin:round;stroke-miterlimit:2;">
    <g transform="matrix(1,0,0,1,-1190.7,-170.706)">
        <g>
            <g transform="matrix(1,0,0,1,920.784,-67.8763)">
                <circle cx="417.426" cy="386.096" r="147.513" style="fill:rgb(0,162,162);"/>
            </g>
            <g transform="matrix(0.309234,0,0,0.309234,1047.17,71.8962)">
                <g transform="matrix(4.16667,0,0,4.16667,-2069.38,-459.989)">
                    <path d="M690.823,291.41C696.01,303.743 705.894,310.454 712.486,310.454C718.963,310.454 728.04,303.968 733.3,291.794C734.576,288.836 735.681,285.061 736.45,281.369C737.309,278.417 737.784,274.672 737.784,269.887C737.784,257.239 726.458,246.572 712.486,246.572C698.523,246.572 687.196,257.239 687.196,269.887C687.196,273.224 687.402,276.055 687.784,278.464C688.295,282.854 689.284,287.791 690.823,291.41Z" style="fill:white;fill-rule:nonzero;"/>
                    <path d="M757.214,327.447C752.157,322.042 737.941,323.396 730.913,319.682C727.789,325.526 727.747,335.131 722.56,335.131C722.339,335.131 722.107,335.114 721.866,335.076C714.05,333.904 717.958,313.971 712.486,313.971C707.015,313.971 710.923,333.904 703.107,335.076C702.866,335.114 702.635,335.131 702.412,335.131C697.226,335.131 697.184,325.526 694.06,319.682C687.036,323.396 672.82,322.042 667.782,327.447C665.042,330.376 663.62,348.514 663.62,356.572L761.352,356.572C761.352,348.514 759.938,330.376 757.214,327.447Z" style="fill:white;fill-rule:nonzero;"/>
                </g>
                <g transform="matrix(3.24218,0,0,3.24218,-1191.68,-180.94)">
                    <path d="M690.823,291.41C696.01,303.743 705.894,310.454 712.486,310.454C718.963,310.454 728.04,303.968 733.3,291.794C734.576,288.836 735.681,285.061 736.45,281.369C737.309,278.417 737.784,274.672 737.784,269.887C737.784,257.239 726.458,246.572 712.486,246.572C698.523,246.572 687.196,257.239 687.196,269.887C687.196,273.224 687.402,276.055 687.784,278.464C688.295,282.854 689.284,287.791 690.823,291.41Z" style="fill:white;fill-rule:nonzero;"/>
                    <path d="M757.214,327.447C752.157,322.042 737.941,323.396 730.913,319.682C727.789,325.526 727.747,335.131 722.56,335.131C722.339,335.131 722.107,335.114 721.866,335.076C714.05,333.904 717.958,313.971 712.486,313.971C707.015,313.971 710.923,333.904 703.107,335.076C702.866,335.114 702.635,335.131 702.412,335.131C697.226,335.131 697.184,325.526 694.06,319.682C687.036,323.396 672.82,322.042 667.782,327.447C665.042,330.376 663.62,348.514 663.62,356.572L761.352,356.572C761.352,348.514 759.938,330.376 757.214,327.447Z" style="fill:white;fill-rule:nonzero;"/>
                </g>
                <g transform="matrix(2.26616,0,0,2.26616,-898.279,123.466)">
                    <path d="M690.823,291.41C696.01,303.743 705.894,310.454 712.486,310.454C718.963,310.454 728.04,303.968 733.3,291.794C734.576,288.836 735.681,285.061 736.45,281.369C737.309,278.417 737.784,274.672 737.784,269.887C737.784,257.239 726.458,246.572 712.486,246.572C698.523,246.572 687.196,257.239 687.196,269.887C687.196,273.224 687.402,276.055 687.784,278.464C688.295,282.854 689.284,287.791 690.823,291.41Z" style="fill:white;fill-rule:nonzero;"/>
                    <path d="M757.214,327.447C752.157,322.042 737.941,323.396 730.913,319.682C727.789,325.526 727.747,335.131 722.56,335.131C722.339,335.131 722.107,335.114 721.866,335.076C714.05,333.904 717.958,313.971 712.486,313.971C707.015,313.971 710.923,333.904 703.107,335.076C702.866,335.114 702.635,335.131 702.412,335.131C697.226,335.131 697.184,325.526 694.06,319.682C687.036,323.396 672.82,322.042 667.782,327.447C665.042,330.376 663.62,348.514 663.62,356.572L761.352,356.572C761.352,348.514 759.938,330.376 757.214,327.447Z" style="fill:white;fill-rule:nonzero;"/>
                </g>
            </g>
        </g>
    </g>
</svg>
