<?xml version="1.0" encoding="UTF-8" standalone="no"?>
<!DOCTYPE svg PUBLIC "-//W3C//DTD SVG 1.1//EN" "http://www.w3.org/Graphics/SVG/1.1/DTD/svg11.dtd">
<svg width="100%" height="100%" viewBox="0 0 296 296" version="1.1" xmlns="http://www.w3.org/2000/svg" xmlns:xlink="http://www.w3.org/1999/xlink" xml:space="preserve" xmlns:serif="http://www.serif.com/" style="fill-rule:evenodd;clip-rule:evenodd;stroke-linejoin:round;stroke-miterlimit:2;">
    <g transform="matrix(1,0,0,1,-1549.69,-164.178)">
        <g transform="matrix(0.999391,0.0348995,-0.0348995,0.999391,11.9118,-59.0417)">
            <g transform="matrix(1,0,0,1,1279.78,-74.4034)">
                <circle cx="417.426" cy="386.096" r="147.513" style="fill:rgb(224,44,38);"/>
            </g>
            <g transform="matrix(1.28848,0,0,1.28848,1060.49,-1385.29)">
                <rect x="423.315" y="1303.85" width="16.159" height="24.86" style="fill:rgb(252,252,252);fill-rule:nonzero;"/>
                <rect x="548.851" y="1303.85" width="16.157" height="24.86" style="fill:rgb(252,252,252);fill-rule:nonzero;"/>
                <path d="M530.448,1342.06C530.448,1342.71 529.927,1343.23 529.282,1343.23L497.884,1343.23C497.239,1343.23 496.717,1342.71 496.717,1342.06L496.717,1337.98C496.717,1337.66 496.846,1337.36 497.071,1337.14L502.29,1332.07C514.5,1320.45 520.248,1314.21 520.248,1307.18C520.248,1303.33 518.77,1298.73 511.727,1298.73C507.581,1298.73 504.166,1300.85 502.032,1302.63C501.752,1302.86 501.379,1302.95 501.022,1302.87C500.669,1302.78 500.372,1302.54 500.223,1302.21L498.102,1297.52C497.887,1297.04 498.016,1296.48 498.416,1296.14C502.405,1292.8 507.728,1290.88 513.016,1290.88C524.224,1290.88 529.239,1298.65 529.239,1306.35C529.239,1316.16 522.068,1323.83 511.933,1333.6L510.045,1335.37L529.282,1335.37C529.927,1335.37 530.448,1335.89 530.448,1336.54L530.448,1342.06ZM491.606,1342.06C491.606,1342.71 491.082,1343.23 490.439,1343.23L459.041,1343.23C458.398,1343.23 457.875,1342.71 457.875,1342.06L457.875,1337.98C457.875,1337.66 458.005,1337.36 458.231,1337.14L463.448,1332.07C475.66,1320.45 481.404,1314.21 481.404,1307.18C481.404,1303.33 479.929,1298.73 472.885,1298.73C468.519,1298.73 464.937,1301.17 463.19,1302.63C462.909,1302.86 462.537,1302.95 462.183,1302.87C461.825,1302.78 461.529,1302.54 461.38,1302.21L459.259,1297.52C459.044,1297.04 459.173,1296.48 459.572,1296.14C463.564,1292.8 468.886,1290.88 474.176,1290.88C485.385,1290.88 490.398,1298.65 490.398,1306.35C490.398,1316.16 483.227,1323.83 473.092,1333.6L471.207,1335.37L490.439,1335.37C491.082,1335.37 491.606,1335.89 491.606,1336.54L491.606,1342.06ZM536.099,1262.05L452.226,1262.05C447.245,1262.05 443.167,1266.13 443.167,1271.11L443.167,1363C443.167,1367.98 447.245,1372.05 452.226,1372.05L536.099,1372.05C541.08,1372.05 545.155,1367.98 545.155,1363L545.155,1271.11C545.155,1266.13 541.08,1262.05 536.099,1262.05Z" style="fill:rgb(252,252,252);fill-rule:nonzero;"/>
            </g>
        </g>
    </g>
</svg>
