<?xml version="1.0" encoding="UTF-8" standalone="no"?>
<!DOCTYPE svg PUBLIC "-//W3C//DTD SVG 1.1//EN" "http://www.w3.org/Graphics/SVG/1.1/DTD/svg11.dtd">
<svg width="100%" height="100%" viewBox="0 0 296 296" version="1.1" xmlns="http://www.w3.org/2000/svg" xmlns:xlink="http://www.w3.org/1999/xlink" xml:space="preserve" xmlns:serif="http://www.serif.com/" style="fill-rule:evenodd;clip-rule:evenodd;stroke-linejoin:round;stroke-miterlimit:2;">
    <g transform="matrix(1,0,0,1,-1967.43,-170.706)">
        <g>
            <g transform="matrix(1,0,0,1,1697.51,-67.8763)">
                <circle cx="417.426" cy="386.096" r="147.513" style="fill:rgb(3,158,102);"/>
            </g>
            <g transform="matrix(1.28848,0,0,1.28848,1723.79,-340.675)">
                <path d="M363.629,456.376L312.258,472.419L320.969,476.711L243.53,522.015L247.56,528.903L325.485,483.314L324.471,493.295L363.629,456.376Z" style="fill:white;fill-rule:nonzero;"/>
                <path d="M275.515,534.738L247.039,534.738C245.517,534.738 244.271,535.984 244.271,537.506L244.271,545.576C244.271,547.098 245.517,548.343 247.039,548.343L275.515,548.343C277.038,548.343 278.283,547.098 278.283,545.576L278.283,537.506C278.283,535.984 277.038,534.738 275.515,534.738Z" style="fill:white;fill-rule:nonzero;"/>
                <path d="M275.515,552.772L247.039,552.772C245.517,552.772 244.271,554.017 244.271,555.539L244.271,563.609C244.271,565.131 245.517,566.376 247.039,566.376L275.515,566.376C277.038,566.376 278.283,565.131 278.283,563.609L278.283,555.539C278.283,554.017 277.038,552.772 275.515,552.772Z" style="fill:white;fill-rule:nonzero;"/>
                <path d="M315.479,534.738L287.003,534.738C285.48,534.738 284.235,535.984 284.235,537.506L284.235,545.576C284.235,547.098 285.48,548.343 287.003,548.343L315.479,548.343C317.001,548.343 318.247,547.098 318.247,545.576L318.247,537.506C318.247,535.984 317.001,534.738 315.479,534.738Z" style="fill:white;fill-rule:nonzero;"/>
                <path d="M315.479,552.772L287.003,552.772C285.48,552.772 284.235,554.017 284.235,555.539L284.235,563.609C284.235,565.131 285.48,566.376 287.003,566.376L315.479,566.376C317.001,566.376 318.247,565.131 318.247,563.609L318.247,555.539C318.247,554.017 317.001,552.772 315.479,552.772Z" style="fill:white;fill-rule:nonzero;"/>
                <path d="M315.479,516.705L287.003,516.705C285.48,516.705 284.235,517.951 284.235,519.474L284.235,527.542C284.235,529.064 285.48,530.31 287.003,530.31L315.479,530.31C317.001,530.31 318.247,529.064 318.247,527.542L318.247,519.474C318.247,517.951 317.001,516.705 315.479,516.705Z" style="fill:white;fill-rule:nonzero;"/>
                <path d="M359.695,534.738L331.218,534.738C329.695,534.738 328.45,535.984 328.45,537.506L328.45,545.576C328.45,547.098 329.695,548.343 331.218,548.343L359.695,548.343C361.217,548.343 362.462,547.098 362.462,545.576L362.462,537.506C362.462,535.984 361.217,534.738 359.695,534.738Z" style="fill:white;fill-rule:nonzero;"/>
                <path d="M359.695,552.772L331.218,552.772C329.695,552.772 328.45,554.017 328.45,555.539L328.45,563.609C328.45,565.131 329.695,566.376 331.218,566.376L359.695,566.376C361.217,566.376 362.462,565.131 362.462,563.609L362.462,555.539C362.462,554.017 361.217,552.772 359.695,552.772Z" style="fill:white;fill-rule:nonzero;"/>
                <path d="M359.695,516.705L331.218,516.705C329.695,516.705 328.45,517.951 328.45,519.474L328.45,527.542C328.45,529.064 329.695,530.31 331.218,530.31L359.695,530.31C361.217,530.31 362.462,529.064 362.462,527.542L362.462,519.474C362.462,517.951 361.217,516.705 359.695,516.705Z" style="fill:white;fill-rule:nonzero;"/>
                <path d="M359.695,498.672L331.218,498.672C329.695,498.672 328.45,499.918 328.45,501.44L328.45,509.509C328.45,511.032 329.695,512.277 331.218,512.277L359.695,512.277C361.217,512.277 362.462,511.032 362.462,509.509L362.462,501.44C362.462,499.918 361.217,498.672 359.695,498.672Z" style="fill:white;fill-rule:nonzero;"/>
            </g>
        </g>
    </g>
</svg>
