<?xml version="1.0" encoding="UTF-8" standalone="no"?>
<!DOCTYPE svg PUBLIC "-//W3C//DTD SVG 1.1//EN" "http://www.w3.org/Graphics/SVG/1.1/DTD/svg11.dtd">
<svg width="100%" height="100%" viewBox="0 0 153 209" version="1.1" xmlns="http://www.w3.org/2000/svg" xmlns:xlink="http://www.w3.org/1999/xlink" xml:space="preserve" xmlns:serif="http://www.serif.com/" style="fill-rule:evenodd;clip-rule:evenodd;stroke-linejoin:round;stroke-miterlimit:2;">
    <g transform="matrix(1,0,0,1,-37387.6,-11264.7)">
        <g transform="matrix(5.55556,0,0,5.55556,35764.4,7001.07)">
            <g transform="matrix(1,0,0,1,7.55429,-41.6191)">
                <g>
                    <g transform="matrix(-0.350709,-0.936484,-0.936484,0.350709,318.858,830.573)">
                        <path d="M13.634,20.07C9.939,24.412 3.753,18.466 3.536,23.209C3.319,27.953 7.929,28.469 13.634,28.674C19.34,28.88 24.142,25.2 24.358,20.457C24.577,15.713 18.527,14.324 13.634,20.07" style="fill:rgb(33,33,33);fill-rule:nonzero;"/>
                    </g>
                    <g transform="matrix(-0.00737348,0.999973,0.999973,0.00737348,259.529,794.315)">
                        <path d="M16.662,33.949C15.206,33.948 14.494,34.917 14.495,36.112C14.495,37.306 15.206,38.276 16.662,38.276C18.746,38.277 19.77,37.308 19.771,36.114C19.771,34.92 18.747,33.949 16.662,33.949" style="fill:rgb(33,33,33);fill-rule:nonzero;"/>
                    </g>
                    <g transform="matrix(0.149401,0.988777,0.988777,-0.149401,253.972,804.621)">
                        <path d="M12.571,34.252C11.523,34.256 11.013,34.955 11.013,35.815C11.012,36.674 11.524,37.369 12.571,37.365C14.07,37.358 14.806,36.659 14.806,35.8C14.805,34.94 14.069,34.246 12.571,34.252" style="fill:rgb(33,33,33);fill-rule:nonzero;"/>
                    </g>
                    <g transform="matrix(0.273271,0.961937,0.961937,-0.273271,252.79,813.338)">
                        <path d="M9.74,32.843C8.823,32.848 8.375,33.464 8.375,34.219C8.375,34.974 8.822,35.581 9.74,35.576C11.052,35.568 11.697,34.952 11.697,34.197C11.697,33.442 11.052,32.834 9.74,32.843" style="fill:rgb(33,33,33);fill-rule:nonzero;"/>
                    </g>
                    <g transform="matrix(0.402976,0.915211,0.915211,-0.402976,254.188,821.284)">
                        <path d="M8.03,30.788C7.321,30.795 6.975,31.271 6.975,31.856C6.975,32.441 7.321,32.911 8.03,32.905C9.044,32.894 9.542,32.417 9.544,31.832C9.544,31.248 9.045,30.779 8.03,30.788Z" style="fill:rgb(33,33,33);fill-rule:nonzero;"/>
                    </g>
                    <g transform="matrix(0.403269,0.915081,0.915081,-0.403269,255.563,823.609)">
                        <path d="M6.985,28.783C6.418,28.789 6.142,29.169 6.142,29.637C6.141,30.105 6.418,30.48 6.985,30.475C7.795,30.467 8.193,30.085 8.194,29.617C8.194,29.15 7.795,28.775 6.985,28.783" style="fill:rgb(33,33,33);fill-rule:nonzero;"/>
                    </g>
                    <g transform="matrix(-0.518655,0.854983,0.854983,0.518655,304.841,809.418)">
                        <path d="M24.529,9.701C28.217,14.064 34.392,8.125 34.608,12.878C34.824,17.632 30.224,18.134 24.529,18.321C18.835,18.508 14.042,14.808 13.826,10.052C13.61,5.299 19.648,3.927 24.529,9.701Z" style="fill:rgb(33,33,33);fill-rule:nonzero;"/>
                    </g>
                    <g transform="matrix(0.179755,-0.983711,-0.983711,-0.179755,323.184,850.849)">
                        <path d="M24.678,23.218C26.134,23.225 26.845,24.198 26.845,25.393C26.845,26.589 26.134,27.554 24.678,27.547C22.595,27.537 21.572,26.563 21.572,25.367C21.571,24.171 22.595,23.207 24.678,23.218" style="fill:rgb(33,33,33);fill-rule:nonzero;"/>
                    </g>
                    <g transform="matrix(0.331008,-0.943628,-0.943628,-0.331008,320.199,858.308)">
                        <path d="M28.625,22.729C29.671,22.738 30.182,23.44 30.182,24.301C30.182,25.161 29.672,25.854 28.625,25.845C27.13,25.833 26.394,25.129 26.394,24.269C26.395,23.409 27.13,22.716 28.625,22.729Z" style="fill:rgb(33,33,33);fill-rule:nonzero;"/>
                    </g>
                    <g transform="matrix(0.447754,-0.894157,-0.894157,-0.447754,315.202,863.174)">
                        <path d="M31.111,20.806C32.027,20.816 32.474,21.434 32.474,22.189C32.473,22.945 32.027,23.553 31.111,23.544C29.8,23.53 29.157,22.911 29.156,22.155C29.156,21.4 29.8,20.793 31.111,20.806" style="fill:rgb(33,33,33);fill-rule:nonzero;"/>
                    </g>
                    <g transform="matrix(0.566199,-0.824269,-0.824269,-0.566199,308.384,865.878)">
                        <path d="M32.355,18.454C33.063,18.462 33.409,18.942 33.408,19.528C33.408,20.113 33.063,20.584 32.355,20.575C31.344,20.562 30.846,20.081 30.846,19.495C30.846,18.91 31.343,18.441 32.355,18.454Z" style="fill:rgb(33,33,33);fill-rule:nonzero;"/>
                    </g>
                    <g transform="matrix(0.565935,-0.82445,-0.82445,-0.565935,306.725,867.46)">
                        <path d="M32.98,16.281C33.545,16.288 33.821,16.672 33.821,17.139C33.821,17.608 33.546,17.982 32.98,17.976C32.171,17.966 31.776,17.582 31.774,17.114C31.773,16.646 32.172,16.272 32.98,16.281" style="fill:rgb(33,33,33);fill-rule:nonzero;"/>
                    </g>
                </g>
            </g>
        </g>
    </g>
</svg>
