<?xml version="1.0" encoding="UTF-8" standalone="no"?>
<!DOCTYPE svg PUBLIC "-//W3C//DTD SVG 1.1//EN" "http://www.w3.org/Graphics/SVG/1.1/DTD/svg11.dtd">
<svg width="100%" height="100%" viewBox="0 0 296 296" version="1.1" xmlns="http://www.w3.org/2000/svg" xmlns:xlink="http://www.w3.org/1999/xlink" xml:space="preserve" xmlns:serif="http://www.serif.com/" style="fill-rule:evenodd;clip-rule:evenodd;stroke-linejoin:round;stroke-miterlimit:2;">
    <g transform="matrix(1,0,0,1,-1187.89,-602.881)">
        <g>
            <g transform="matrix(1,0,0,1,917.977,364.298)">
                <circle cx="417.426" cy="386.096" r="147.513" style="fill:rgb(3,158,67);"/>
            </g>
            <g transform="matrix(1.57317,0,0,1.57317,-658.556,-1917.68)">
                <path d="M1322.22,1646.92C1301.61,1651.07 1286.23,1657.94 1276.15,1666.79C1279.81,1672.19 1283.22,1677.97 1285.85,1683.93C1288.3,1689.46 1289.9,1694.75 1290.62,1699.75C1295.61,1691.41 1300.88,1682.76 1305.53,1675.53C1301,1685.11 1295.87,1696.25 1291.07,1706.5C1291.06,1707.29 1291.02,1708.07 1290.96,1708.84C1290.26,1717.41 1286.57,1725.02 1279.97,1731.48C1315.46,1728.92 1340.34,1705.79 1322.22,1646.92Z" style="fill:white;fill-rule:nonzero;"/>
                <path d="M1252.62,1640.99C1231.66,1658.54 1222.87,1687.86 1233.76,1708.59C1237.29,1707.96 1240.64,1707.79 1243.82,1708.07C1250.28,1708.64 1256.19,1711.1 1261.39,1715.38C1262.89,1716.61 1264.33,1717.98 1265.72,1719.5C1254.71,1696.48 1254.4,1673.44 1254.4,1673.44C1258.5,1704.41 1272.37,1724.38 1277.39,1730.73C1308.84,1701.77 1266.49,1657.55 1252.62,1640.99Z" style="fill:white;fill-rule:nonzero;"/>
                <path d="M1234.15,1717.48C1236.52,1709 1249.89,1712.21 1248.54,1719.48C1248.37,1720.67 1246,1721.86 1240.92,1721.52C1236.53,1721.23 1233.68,1719.17 1234.15,1717.48ZM1273.89,1735.6C1258.37,1704.7 1236.31,1704.25 1206.67,1722.56C1224.84,1752 1245.13,1759.96 1272.53,1739.87C1264.98,1735.68 1249.74,1729.47 1231.75,1725.87C1245.51,1725.57 1263.67,1732.12 1273.89,1735.6Z" style="fill:white;fill-rule:nonzero;"/>
            </g>
        </g>
    </g>
</svg>
