<?xml version="1.0" encoding="UTF-8" standalone="no"?>
<!DOCTYPE svg PUBLIC "-//W3C//DTD SVG 1.1//EN" "http://www.w3.org/Graphics/SVG/1.1/DTD/svg11.dtd">
<svg width="100%" height="100%" viewBox="0 0 3045 292" version="1.1" xmlns="http://www.w3.org/2000/svg" xmlns:xlink="http://www.w3.org/1999/xlink" xml:space="preserve" xmlns:serif="http://www.serif.com/" style="fill-rule:evenodd;clip-rule:evenodd;stroke-linejoin:round;stroke-miterlimit:2;">
    <g transform="matrix(2.66667,0,0,2.66667,-1037.82,-2264.82)">
        <g transform="matrix(1,0,0,1,520.435,956.974)">
            <path d="M0,-105.937L0,0L-25.15,0L-47.777,-40.869C-54.064,-52.327 -61.138,-65.854 -66.185,-78.263L-66.805,-78.263C-66.019,-64.117 -65.688,-49.184 -65.688,-31.893L-65.688,0L-87.694,0L-87.694,-19.649L-131.252,-19.649L-131.252,-44.799L-92.245,-44.799L-92.245,-64.282L-131.252,-64.282L-131.252,-86.288L-89.887,-86.288L-89.887,-105.937L-59.731,-105.937L-37.725,-67.136C-31.437,-55.967 -25.315,-42.772 -20.435,-30.817L-20.104,-30.817C-21.551,-44.799 -22.006,-59.111 -22.006,-75.12L-22.006,-105.937L0,-105.937Z" style="fill:rgb(234,86,52);fill-rule:nonzero;"/>
        </g>
        <g transform="matrix(1,0,0,1,498.428,956.974)">
            <path d="M0,-105.937L0,-75.12C0,-59.111 0.455,-44.799 1.903,-30.817L1.572,-30.817C-3.309,-42.772 -9.431,-55.967 -15.719,-67.136L-37.725,-105.937L-65.688,-105.937L-65.688,0L-43.682,0L-43.682,-31.893C-43.682,-49.184 -44.013,-64.117 -44.799,-78.263L-44.178,-78.263C-39.132,-65.854 -32.058,-52.327 -25.771,-40.869L-3.144,0L22.006,0L22.006,-105.937L0,-105.937Z" style="fill:rgb(234,86,52);fill-rule:nonzero;"/>
        </g>
        <g transform="matrix(1,0,0,1,559.889,851.035)">
            <path d="M0,105.93L-33.949,0L-7.702,0L5.187,44.793C8.8,57.524 12.101,69.467 14.615,82.67L15.088,82.67C17.76,69.939 21.06,57.366 24.674,45.263L38.19,0L63.651,0L27.974,105.93L0,105.93Z" style="fill:rgb(234,86,52);fill-rule:nonzero;"/>
        </g>
        <g transform="matrix(-1,0,0,1,1281.36,-112)">
            <rect x="628.737" y="963.035" width="23.89" height="105.93" style="fill:rgb(234,86,52);"/>
        </g>
        <g transform="matrix(1,0,0,1,667.876,875.711)">
            <path d="M0,56.578C6.286,59.878 16.344,63.181 26.561,63.181C37.562,63.181 43.377,58.622 43.377,51.706C43.377,45.106 38.348,41.335 25.617,36.933C8.015,30.646 -3.615,20.903 -3.615,5.5C-3.615,-12.573 11.63,-26.247 36.461,-26.247C48.564,-26.247 57.207,-23.89 63.494,-20.903L58.15,-1.729C54.064,-3.773 46.362,-6.758 36.148,-6.758C25.775,-6.758 20.746,-1.887 20.746,3.458C20.746,10.216 26.561,13.201 40.39,18.388C59.093,25.304 67.738,35.047 67.738,49.977C67.738,67.738 54.221,82.825 25.146,82.825C13.044,82.825 1.099,79.525 -4.874,76.224L0,56.578Z" style="fill:rgb(234,86,52);fill-rule:nonzero;"/>
        </g>
        <g transform="matrix(-1,0,0,1,1515.57,-112)">
            <rect x="745.84" y="963.035" width="23.89" height="105.93" style="fill:rgb(234,86,52);"/>
        </g>
        <g transform="matrix(1,0,0,1,830.399,868.322)">
            <path d="M0,71.356C16.188,71.356 25.461,56.11 25.461,35.365C25.461,16.347 16.504,0.002 0,0.002C-16.501,0.002 -25.774,16.034 -25.774,35.836C-25.774,55.795 -16.187,71.356 -0.155,71.356L0,71.356ZM-1.256,90.372C-32.533,90.372 -51.079,66.64 -51.079,36.464C-51.079,4.717 -30.646,-19.016 0.473,-19.016C33.005,-19.016 50.766,5.345 50.766,34.58C50.766,69.469 29.863,90.372 -1.099,90.372L-1.256,90.372Z" style="fill:rgb(234,86,52);fill-rule:nonzero;"/>
        </g>
        <g transform="matrix(1,0,0,1,890.609,851.035)">
            <path d="M0,105.93L0,0L27.974,0L49.978,38.821C56.263,49.98 62.393,63.181 67.265,75.126L67.58,75.126C66.167,61.137 65.694,46.837 65.694,30.806L65.694,0L87.697,0L87.697,105.93L62.551,105.93L39.919,65.068C33.633,53.593 26.56,40.079 21.531,27.661L20.903,27.661C21.688,41.808 22.001,56.738 22.001,74.026L22.001,105.93L0,105.93Z" style="fill:rgb(234,86,52);fill-rule:nonzero;"/>
        </g>
        <g transform="matrix(1,0,0,1,1042.13,869.423)">
            <path d="M0,69.469C2.044,69.939 5.502,69.939 8.33,69.939C30.176,70.097 44.478,58.152 44.478,32.848C44.478,10.844 31.59,-0.785 10.844,-0.785C5.658,-0.785 2.044,-0.313 0,0.157L0,69.469ZM-23.888,-16.815C-15.088,-18.388 -3.615,-19.174 8.33,-19.174C28.604,-19.174 41.806,-15.401 51.864,-7.857C62.866,0.315 69.782,13.203 69.782,32.062C69.782,52.337 62.396,66.324 52.337,74.969C41.178,84.241 24.046,88.643 3.3,88.643C-9.115,88.643 -18.073,87.857 -23.888,87.071L-23.888,-16.815Z" style="fill:rgb(234,86,52);fill-rule:nonzero;"/>
        </g>
        <g transform="matrix(-1,0,0,1,2266.92,-112)">
            <rect x="1121.52" y="963.035" width="23.89" height="105.93" style="fill:rgb(234,86,52);"/>
        </g>
        <g transform="matrix(1,0,0,1,1248.35,855.909)">
            <path d="M0,96.184C-7.387,98.699 -21.374,102.157 -35.363,102.157C-54.694,102.157 -68.681,97.285 -78.424,88.012C-88.012,78.739 -93.357,64.908 -93.357,49.349C-93.199,14.144 -67.58,-5.973 -32.848,-5.973C-19.174,-5.973 -8.645,-3.301 -3.458,-0.944L-8.487,18.388C-14.302,15.716 -21.374,13.829 -33.005,13.829C-52.965,13.829 -68.21,25.146 -68.21,48.091C-68.21,70.094 -54.379,82.825 -34.734,82.825C-29.39,82.825 -24.989,82.197 -23.103,81.409L-23.103,59.093L-39.449,59.093L-39.449,40.389L0,40.389L0,96.184Z" style="fill:rgb(234,86,52);fill-rule:nonzero;"/>
        </g>
        <g transform="matrix(-1,0,0,1,2545.76,-112)">
            <rect x="1260.94" y="963.035" width="23.89" height="105.93" style="fill:rgb(234,86,52);"/>
        </g>
        <g transform="matrix(1,0,0,1,1319.88,936.848)">
            <path d="M0,-65.696L-28.604,-65.696L-28.604,-85.813L52.807,-85.813L52.807,-65.696L23.89,-65.696L23.89,20.117L0,20.117L0,-65.696Z" style="fill:rgb(234,86,52);fill-rule:nonzero;"/>
        </g>
        <g transform="matrix(1,0,0,1,1419.22,896.141)">
            <path d="M0,15.718L-6.601,-6.756C-8.33,-13.044 -10.216,-21.058 -11.787,-27.188L-12.258,-27.188C-13.672,-20.903 -15.401,-12.886 -16.972,-6.756L-23.417,15.718L0,15.718ZM-26.875,33.634L-34.262,60.824L-59.093,60.824L-26.718,-45.106L4.559,-45.106L37.564,60.824L11.788,60.824L3.616,33.634L-26.875,33.634Z" style="fill:rgb(234,86,52);fill-rule:nonzero;"/>
        </g>
        <g transform="matrix(1,0,0,1,1464.81,956.965)">
            <path d="M0,-105.93L23.89,-105.93L23.89,-20.117L66.011,-20.117L66.011,0L0,0L0,-105.93Z" style="fill:rgb(234,86,52);fill-rule:nonzero;"/>
        </g>
    </g>
</svg>
