<?xml version="1.0" encoding="UTF-8" standalone="no"?>
<!DOCTYPE svg PUBLIC "-//W3C//DTD SVG 1.1//EN" "http://www.w3.org/Graphics/SVG/1.1/DTD/svg11.dtd">
<svg width="100%" height="100%" viewBox="0 0 296 296" version="1.1" xmlns="http://www.w3.org/2000/svg" xmlns:xlink="http://www.w3.org/1999/xlink" xml:space="preserve" xmlns:serif="http://www.serif.com/" style="fill-rule:evenodd;clip-rule:evenodd;stroke-linejoin:round;stroke-miterlimit:2;">
    <g transform="matrix(1,0,0,1,-804.227,-145.802)">
        <g transform="matrix(1,0,0,1,331.516,14.2588)">
            <g transform="matrix(1,0,0,1,202.798,-107.039)">
                <circle cx="417.426" cy="386.096" r="147.513" style="fill:rgb(247,90,54);"/>
            </g>
            <g transform="matrix(1.24457,0.333482,-0.333482,1.24457,-900.435,-1326.13)">
                <path d="M1492.24,864.9L1432.61,864.9C1430.58,864.9 1428.94,863.26 1428.94,861.233C1428.94,859.206 1430.58,857.565 1432.61,857.565L1492.24,857.565C1494.26,857.565 1495.9,859.206 1495.9,861.233C1495.9,863.26 1494.26,864.9 1492.24,864.9ZM1492.24,883.235L1432.61,883.235C1430.58,883.235 1428.94,881.592 1428.94,879.565C1428.94,877.539 1430.58,875.9 1432.61,875.9L1492.24,875.9C1494.26,875.9 1495.9,877.539 1495.9,879.565C1495.9,881.592 1494.26,883.235 1492.24,883.235ZM1492.24,901.566L1432.61,901.566C1430.58,901.566 1428.94,899.927 1428.94,897.9C1428.94,895.874 1430.58,894.231 1432.61,894.231L1492.24,894.231C1494.26,894.231 1495.9,895.874 1495.9,897.9C1495.9,899.927 1494.26,901.566 1492.24,901.566ZM1492.24,919.9L1432.61,919.9C1430.58,919.9 1428.94,918.261 1428.94,916.233C1428.94,914.206 1430.58,912.567 1432.61,912.567L1492.24,912.567C1494.26,912.567 1495.9,914.206 1495.9,916.233C1495.9,918.261 1494.26,919.9 1492.24,919.9ZM1492.24,938.232L1432.61,938.232C1430.58,938.232 1428.94,936.593 1428.94,934.566C1428.94,932.542 1430.58,930.9 1432.61,930.9L1492.24,930.9C1494.26,930.9 1495.9,932.542 1495.9,934.566C1495.9,936.593 1494.26,938.232 1492.24,938.232ZM1500.92,842.9L1423.92,842.9C1420.96,842.9 1418.4,844.68 1417.25,847.223C1416.83,848.142 1416.59,849.163 1416.59,850.232L1416.59,945.567C1416.59,949.598 1419.89,952.9 1423.92,952.9L1500.92,952.9C1501.99,952.9 1503.01,952.66 1503.93,952.241C1506.47,951.085 1508.26,948.527 1508.26,945.567L1508.26,850.232C1508.26,846.2 1504.96,842.9 1500.92,842.9Z" style="fill:white;fill-rule:nonzero;stroke:rgb(247,90,54);stroke-width:0.78px;"/>
            </g>
        </g>
    </g>
</svg>
