<?xml version="1.0" encoding="UTF-8" standalone="no"?>
<!DOCTYPE svg PUBLIC "-//W3C//DTD SVG 1.1//EN" "http://www.w3.org/Graphics/SVG/1.1/DTD/svg11.dtd">
<svg width="100%" height="100%" viewBox="0 0 296 296" version="1.1" xmlns="http://www.w3.org/2000/svg" xmlns:xlink="http://www.w3.org/1999/xlink" xml:space="preserve" xmlns:serif="http://www.serif.com/" style="fill-rule:evenodd;clip-rule:evenodd;stroke-linejoin:round;stroke-miterlimit:2;">
    <g transform="matrix(1,0,0,1,-706.226,-600.207)">
        <g transform="matrix(1,0,0,1,-481.664,-2.67352)">
            <g transform="matrix(1,0,0,1,917.977,364.298)">
                <circle cx="417.426" cy="386.096" r="147.513" style="fill:rgb(0,129,169);"/>
            </g>
            <g transform="matrix(1.40846,0,0,1.40846,-1364.44,-810.733)">
                <path d="M1952.15,1078.21C1954.12,1078.06 1956.09,1077.45 1957.89,1076.35C1964.02,1072.61 1965.96,1064.61 1962.22,1058.49C1958.49,1052.35 1950.49,1050.41 1944.36,1054.15C1938.23,1057.89 1936.29,1065.89 1940.02,1072.02C1941.08,1073.75 1942.48,1075.15 1944.07,1076.17L1944.6,1076.52C1945.22,1076.83 1945.65,1077.4 1945.56,1077.79C1945.46,1078.18 1945.39,1078.5 1945.39,1078.5L1935.04,1121.19C1935.04,1121.19 1934.94,1121.6 1934.82,1122.09C1934.7,1122.58 1934,1122.94 1933.27,1122.88L1932.6,1122.88C1929.07,1122.86 1925.49,1123.78 1922.26,1125.75C1918.99,1127.75 1916.5,1130.55 1914.91,1133.74L1914.63,1134.3C1914.36,1134.93 1913.84,1135.38 1913.47,1135.29C1913.09,1135.2 1912.79,1135.12 1912.79,1135.12L1870.1,1124.77C1870.1,1124.77 1869.68,1124.67 1869.17,1124.54C1868.66,1124.42 1868.25,1123.94 1868.26,1123.48L1868.24,1123.06C1868.14,1120.96 1867.53,1118.85 1866.36,1116.93C1862.62,1110.8 1854.62,1108.86 1848.49,1112.59C1842.36,1116.33 1840.42,1124.33 1844.16,1130.46C1847.89,1136.59 1855.89,1138.53 1862.02,1134.79C1863.69,1133.77 1865.05,1132.44 1866.07,1130.91L1866.41,1130.4C1866.72,1129.81 1867.38,1129.42 1867.87,1129.54C1868.36,1129.66 1868.76,1129.75 1868.76,1129.75L1911.32,1140.08C1911.32,1140.08 1911.68,1140.17 1912.13,1140.27C1912.57,1140.38 1912.88,1141.12 1912.82,1141.92L1912.82,1142.65C1912.83,1146.12 1913.76,1149.63 1915.7,1152.81C1921.36,1162.09 1933.47,1165.03 1942.75,1159.37C1952.04,1153.71 1954.97,1141.6 1949.31,1132.32C1947.36,1129.11 1944.63,1126.66 1941.52,1125.06L1940.9,1124.74C1940.19,1124.45 1939.72,1123.76 1939.85,1123.21C1939.99,1122.66 1940.1,1122.22 1940.1,1122.22L1950.39,1079.78C1950.39,1079.78 1950.47,1079.43 1950.57,1079.01C1950.68,1078.59 1951.18,1078.25 1951.69,1078.25L1952.15,1078.21Z" style="fill:white;fill-rule:nonzero;"/>
            </g>
        </g>
    </g>
</svg>
