<svg width="30" height="37" viewBox="0 0 30 37" fill="none" xmlns="http://www.w3.org/2000/svg">
<path d="M13.4 29.1333C13.6069 29.1334 13.8118 29.0921 14.0026 29.012C14.1934 28.9319 14.3663 28.8145 14.5111 28.6667L20.7222 22.4889C21.0176 22.1942 21.1853 21.7951 21.1889 21.3778C21.1818 20.9612 21.0147 20.5634 20.7222 20.2667L14.5111 14.0889C14.2896 13.8679 14.0077 13.7172 13.7009 13.6557C13.394 13.5942 13.0759 13.6248 12.7863 13.7434C12.4967 13.8621 12.2486 14.0637 12.0732 14.3228C11.8977 14.5819 11.8027 14.8871 11.8 15.2V27.5445C11.797 27.8588 11.8887 28.1668 12.063 28.4283C12.2374 28.6899 12.4865 28.893 12.7778 29.0111C12.9758 29.0903 13.1868 29.1317 13.4 29.1333ZM13.5778 15.6222L19.3444 21.3556L13.5778 27.1V15.6222Z" fill="#020202"/>
<path d="M14.0667 5.55546H6.62222L9.86667 2.62213C10.0651 2.41989 10.1787 2.1495 10.1844 1.86625C10.1901 1.583 10.0873 1.30829 9.89716 1.09827C9.70701 0.888259 9.44382 0.758811 9.1614 0.736396C8.87899 0.713981 8.59867 0.800292 8.37778 0.977682L2.13333 6.66657L8.37778 12.2221C8.58155 12.4073 8.84685 12.5103 9.12222 12.511C9.27727 12.5106 9.43053 12.4778 9.57213 12.4147C9.71374 12.3515 9.84056 12.2595 9.94445 12.1444C10.0437 12.036 10.1204 11.9091 10.1702 11.7709C10.2201 11.6327 10.242 11.486 10.2348 11.3392C10.2276 11.1925 10.1913 11.0487 10.1281 10.916C10.0649 10.7834 9.97606 10.6646 9.86667 10.5666L6.73333 7.77768H14.0667C16.3782 7.77817 18.6483 8.39078 20.6463 9.55322C22.6442 10.7157 24.2987 12.3865 25.4414 14.3957C26.5842 16.405 27.1744 18.6811 27.1522 20.9925C27.13 23.3039 26.496 25.5682 25.3148 27.5551C24.1336 29.542 22.4473 31.1807 20.4274 32.3045C18.4075 33.4282 16.1259 33.9971 13.8149 33.9531C11.5038 33.9091 9.24556 33.2539 7.26985 32.054C5.29413 30.8542 3.6714 29.1525 2.56667 27.1221C2.39945 26.9303 2.17144 26.8016 1.92075 26.7577C1.67006 26.7138 1.41189 26.7572 1.18941 26.8808C0.966933 27.0044 0.793629 27.2007 0.698478 27.4367C0.603327 27.6728 0.592098 27.9343 0.666667 28.1777C1.95911 30.5558 3.85886 32.5488 6.17235 33.9537C8.48585 35.3585 11.1304 36.125 13.8366 36.175C16.5427 36.225 19.2138 35.5567 21.5776 34.2383C23.9414 32.9199 25.9135 30.9984 27.2929 28.6696C28.6723 26.3409 29.4098 23.6881 29.4301 20.9815C29.4504 18.275 28.7529 15.6114 27.4087 13.2622C26.0644 10.913 24.1215 8.96207 21.7777 7.60826C19.434 6.25446 16.7733 5.54614 14.0667 5.55546Z" fill="#020202"/>
</svg>
