<?xml version="1.0" standalone="no"?>
<!DOCTYPE svg PUBLIC "-//W3C//DTD SVG 20010904//EN"
 "http://www.w3.org/TR/2001/REC-SVG-20010904/DTD/svg10.dtd">
<svg version="1.0" xmlns="http://www.w3.org/2000/svg"
 width="531.000000pt" height="531.000000pt" viewBox="0 0 531.000000 531.000000"
 preserveAspectRatio="xMidYMid meet">
<metadata>
Created by potrace 1.14, written by Peter Selinger 2001-2017
</metadata>
<g transform="translate(0.000000,531.000000) scale(0.100000,-0.100000)"
fill="#000000" stroke="none">
<path d="M1010 3710 l0 -240 -505 0 -505 0 0 -270 0 -270 475 0 475 0 0 -235
0 -235 -475 0 -475 0 0 -310 0 -310 530 0 530 0 0 -240 0 -240 271 0 271 0 -6
838 c-4 460 -9 890 -12 955 -3 64 -2 117 3 117 5 0 33 -57 63 -127 95 -226
307 -635 630 -1216 l315 -567 307 0 308 0 0 1295 0 1295 -270 0 -270 0 0 -489
c0 -500 12 -924 33 -1192 7 -82 10 -149 7 -149 -3 0 -20 37 -39 83 -154 372
-292 641 -646 1262 l-278 485 -368 0 -369 0 0 -240z"/>
<path d="M4460 3939 c255 -52 403 -110 570 -222 75 -51 189 -157 248 -232 l31
-40 1 253 0 252 -447 -1 c-301 -1 -433 -4 -403 -10z"/>
<path d="M3939 3520 c-52 -4 -105 -11 -117 -14 l-22 -7 0 -851 0 -850 203 5
c160 4 219 9 284 26 253 64 431 215 521 441 56 141 65 201 66 425 0 201 -1
214 -28 300 -100 324 -322 494 -691 525 -60 5 -112 9 -115 8 -3 0 -48 -4 -101
-8z"/>
<path d="M5256 1871 c-54 -80 -186 -210 -266 -262 -161 -106 -385 -190 -623
-234 -64 -11 -17 -13 436 -14 l507 -1 0 290 c0 160 -1 290 -3 290 -2 0 -25
-31 -51 -69z"/>
</g>
</svg>
