<svg width="40" height="30" viewBox="0 0 40 30" fill="none" xmlns="http://www.w3.org/2000/svg">
<path d="M6.25 28.75C6.25 28.4185 6.3817 28.1005 6.61612 27.8661C6.85054 27.6317 7.16848 27.5 7.5 27.5H32.5C32.8315 27.5 33.1495 27.6317 33.3839 27.8661C33.6183 28.1005 33.75 28.4185 33.75 28.75C33.75 29.0815 33.6183 29.3995 33.3839 29.6339C33.1495 29.8683 32.8315 30 32.5 30H7.5C7.16848 30 6.85054 29.8683 6.61612 29.6339C6.3817 29.3995 6.25 29.0815 6.25 28.75ZM34.9775 2.5L35.0375 2.5025C35.5046 2.5343 35.9612 2.65567 36.3825 2.86C36.6859 3.0012 36.9464 3.22031 37.1375 3.495C37.305 3.745 37.5 4.1875 37.5 5V19.9775L37.4975 20.0375C37.4655 20.5046 37.3441 20.9612 37.14 21.3825C36.9987 21.6858 36.7796 21.9463 36.505 22.1375C36.255 22.305 35.8125 22.5 35 22.5H5.0225L4.9625 22.4975C4.49543 22.4655 4.03884 22.3441 3.6175 22.14C3.31418 21.9987 3.05369 21.7796 2.8625 21.505C2.695 21.255 2.5 20.8125 2.5 20V5.0225L2.5025 4.9625C2.5343 4.49539 2.65567 4.03876 2.86 3.6175C3.0013 3.31418 3.22039 3.05369 3.495 2.8625C3.745 2.695 4.1875 2.5 5 2.5H34.9775ZM35 0H5C0 0 0 5 0 5V20C0 25 5 25 5 25H35C40 25 40 20 40 20V5C40 0 35 0 35 0Z" fill="#020202"/>
</svg>
