<svg width="36" height="36" viewBox="0 0 36 36" fill="none" xmlns="http://www.w3.org/2000/svg">
<path d="M15.5 5.5C15.5 4.04131 14.9205 2.64236 13.8891 1.61091C12.8576 0.579463 11.4587 0 10 0C8.54131 0 7.14236 0.579463 6.11091 1.61091C5.07946 2.64236 4.5 4.04131 4.5 5.5C4.5 6.95869 5.07946 8.35764 6.11091 9.38909C7.14236 10.4205 8.54131 11 10 11C11.4587 11 12.8576 10.4205 13.8891 9.38909C14.9205 8.35764 15.5 6.95869 15.5 5.5ZM6.5 5.5C6.5 5.04037 6.59053 4.58525 6.76642 4.16061C6.94231 3.73597 7.20012 3.35013 7.52513 3.02513C7.85013 2.70012 8.23597 2.44231 8.66061 2.26642C9.08525 2.09053 9.54037 2 10 2C10.4596 2 10.9148 2.09053 11.3394 2.26642C11.764 2.44231 12.1499 2.70012 12.4749 3.02513C12.7999 3.35013 13.0577 3.73597 13.2336 4.16061C13.4095 4.58525 13.5 5.04037 13.5 5.5C13.5 6.42826 13.1313 7.3185 12.4749 7.97487C11.8185 8.63125 10.9283 9 10 9C9.07174 9 8.1815 8.63125 7.52513 7.97487C6.86875 7.3185 6.5 6.42826 6.5 5.5Z" fill="#020202"/>
<path d="M3 13H11.366C11.038 13.62 10.794 14.292 10.65 15H3C2.73478 15 2.48043 15.1054 2.29289 15.2929C2.10536 15.4804 2 15.7348 2 16V17C2 19.52 4.198 22.228 8.192 22.86C7.548 23.3 7.012 23.886 6.63 24.568C2.41 23.426 0 20.174 0 17V16C0 15.2044 0.316071 14.4413 0.87868 13.8787C1.44129 13.3161 2.20435 13 3 13Z" fill="#020202"/>
<path d="M13.758 13C14.766 11.78 16.292 11 18 11C19.1977 10.9979 20.3633 11.3877 21.3188 12.1099C22.2743 12.8322 22.9673 13.8471 23.292 15C23.5815 16.029 23.5652 17.12 23.2451 18.1399C22.925 19.1598 22.3149 20.0644 21.4893 20.7434C20.6638 21.4225 19.6584 21.8465 18.5959 21.9638C17.5335 22.0811 16.4598 21.8866 15.506 21.404C14.7716 21.0302 14.1306 20.4963 13.6304 19.8415C13.1301 19.1867 12.7833 18.4279 12.6157 17.6211C12.4481 16.8143 12.4639 15.9802 12.662 15.1803C12.86 14.3805 13.2353 13.6354 13.76 13H13.758ZM14.838 15C14.641 15.4155 14.5278 15.8657 14.5048 16.325C14.4819 16.7843 14.5496 17.2435 14.7041 17.6766C14.8586 18.1097 15.0969 18.5081 15.4054 18.8491C15.7139 19.1901 16.0865 19.467 16.502 19.664C16.9175 19.861 17.3677 19.9742 17.827 19.9972C18.2863 20.0202 18.7455 19.9525 19.1786 19.798C19.6117 19.6434 20.0101 19.4051 20.3511 19.0966C20.6921 18.7881 20.969 18.4155 21.166 18C21.5638 17.1606 21.6119 16.1975 21.2997 15.3227C20.9874 14.4478 20.3404 13.7328 19.501 13.335C18.6616 12.9372 17.6985 12.8891 16.8237 13.2014C15.9488 13.5136 15.2338 14.1606 14.836 15H14.838Z" fill="#020202"/>
<path d="M29.37 24.568C28.989 23.8856 28.4542 23.3015 27.808 22.862C31.8 22.228 34 19.518 34 17V16C34 15.7348 33.8946 15.4804 33.7071 15.2929C33.5196 15.1054 33.2652 15 33 15H25.35C25.2087 14.3027 24.9682 13.6292 24.636 13H33C33.7956 13 34.5587 13.3161 35.1213 13.8787C35.6839 14.4413 36 15.2044 36 16V17C36 20.174 33.588 23.424 29.37 24.568Z" fill="#020202"/>
<path d="M26.974 24.74C26.446 24.28 25.756 24 25 24H11C10.6057 23.999 10.2152 24.0758 9.85071 24.2262C9.48626 24.3766 9.15512 24.5976 8.87634 24.8763C8.59755 25.1551 8.37661 25.4863 8.22622 25.8507C8.07583 26.2152 7.99896 26.6057 8.00001 27V28C8.00001 31.942 11.72 36 18 36C24.28 36 28 31.942 28 28V27C28 26.1 27.604 25.292 26.974 24.74ZM10 27C10 26.7348 10.1054 26.4804 10.2929 26.2929C10.4804 26.1054 10.7348 26 11 26H25C25.2652 26 25.5196 26.1054 25.7071 26.2929C25.8947 26.4804 26 26.7348 26 27V28C26 30.876 23.136 34 18 34C12.864 34 10 30.876 10 28V27Z" fill="#020202"/>
<path d="M26 0C27.4587 0 28.8576 0.579463 29.8891 1.61091C30.9205 2.64236 31.5 4.04131 31.5 5.5C31.5 6.95869 30.9205 8.35764 29.8891 9.38909C28.8576 10.4205 27.4587 11 26 11C24.5413 11 23.1424 10.4205 22.1109 9.38909C21.0795 8.35764 20.5 6.95869 20.5 5.5C20.5 4.04131 21.0795 2.64236 22.1109 1.61091C23.1424 0.579463 24.5413 0 26 0ZM26 2C25.0717 2 24.1815 2.36875 23.5251 3.02513C22.8687 3.6815 22.5 4.57174 22.5 5.5C22.5 6.42826 22.8687 7.3185 23.5251 7.97487C24.1815 8.63125 25.0717 9 26 9C26.9283 9 27.8185 8.63125 28.4749 7.97487C29.1313 7.3185 29.5 6.42826 29.5 5.5C29.5 4.57174 29.1313 3.6815 28.4749 3.02513C27.8185 2.36875 26.9283 2 26 2Z" fill="#020202"/>
</svg>
