<?xml version="1.0" encoding="UTF-8" standalone="no"?>
<!DOCTYPE svg PUBLIC "-//W3C//DTD SVG 1.1//EN" "http://www.w3.org/Graphics/SVG/1.1/DTD/svg11.dtd">
<svg width="100%" height="100%" viewBox="0 0 296 296" version="1.1" xmlns="http://www.w3.org/2000/svg" xmlns:xlink="http://www.w3.org/1999/xlink" xml:space="preserve" xmlns:serif="http://www.serif.com/" style="fill-rule:evenodd;clip-rule:evenodd;stroke-linejoin:round;stroke-miterlimit:2;">
    <g transform="matrix(1,0,0,1,-1015.89,-959.35)">
        <g transform="matrix(1,0,0,1,-171.996,356.469)">
            <g transform="matrix(1,0,0,1,917.977,364.298)">
                <circle cx="417.426" cy="386.096" r="147.513" style="fill:rgb(44,73,127);"/>
            </g>
            <g transform="matrix(2.17914,0,0,2.17914,258.555,-367.967)">
                <path d="M500.729,526.184L487.83,526.184L487.83,524.858C488.213,524.834 488.81,524.781 489.619,524.7C490.429,524.619 490.988,524.535 491.294,524.448C491.689,524.324 491.993,524.121 492.203,523.841C492.413,523.561 492.519,523.141 492.519,522.581L492.519,509.478L487.753,509.478L487.753,507.911L488.806,507.911C490.185,507.911 491.418,507.661 492.509,507.164C493.6,506.667 494.381,506.132 494.854,505.559L496.443,505.559C496.405,506.368 496.365,507.313 496.327,508.396C496.29,509.478 496.271,510.449 496.271,511.307L496.271,522.376C496.271,522.812 496.369,523.2 496.567,523.542C496.765,523.885 497.049,524.137 497.418,524.299C497.75,524.436 498.292,524.56 499.044,524.672C499.798,524.784 500.359,524.846 500.729,524.858L500.729,526.184ZM505.42,530.554C517.672,520.234 521.838,507.8 522.549,493.153C520.945,494.428 518.306,495.486 514.599,496.349C509.136,497.62 501.906,498.32 494.242,498.32C486.576,498.32 479.347,497.62 473.885,496.349C470.176,495.486 467.538,494.428 465.934,493.153C466.645,507.8 470.811,520.234 483.063,530.554C497.116,542.391 490.09,557.342 479.231,557.342C468.372,557.342 469.649,566.376 494.242,566.376C518.834,566.376 520.111,557.342 509.252,557.342C498.394,557.342 491.367,542.391 505.42,530.554Z" style="fill:white;fill-rule:nonzero;"/>
                <path d="M494.242,485.237C487.405,485.237 480.87,485.82 475.837,486.879C470.2,488.065 468.652,489.352 468.291,489.751C468.652,490.15 470.201,491.437 475.837,492.622C480.87,493.681 487.406,494.264 494.242,494.264C501.077,494.264 507.612,493.681 512.645,492.622C518.281,491.437 519.831,490.15 520.19,489.751C519.831,489.352 518.281,488.065 512.646,486.879C507.613,485.82 501.077,485.237 494.242,485.237Z" style="fill:white;fill-rule:nonzero;"/>
                <path d="M494.251,476.312C495.023,476.313 495.757,471.867 495.894,466.364C496.03,460.861 495.31,456.378 494.282,456.376C493.257,456.375 492.521,460.855 492.64,466.359C492.759,471.863 493.48,476.311 494.251,476.312Z" style="fill:white;fill-rule:nonzero;"/>
                <path d="M484.833,477.558C485.569,477.355 485.064,473.44 483.461,468.848C481.858,464.255 479.595,460.787 478.649,461.064C477.707,461.34 478.611,465.187 480.421,469.704C482.232,474.221 484.097,477.758 484.833,477.558Z" style="fill:white;fill-rule:nonzero;"/>
                <path d="M476.266,481.203C476.901,480.821 475.447,477.542 472.655,474.042C469.862,470.541 466.673,468.251 465.89,468.755C465.11,469.257 467.146,472.251 470.086,475.631C473.025,479.011 475.632,481.586 476.266,481.203Z" style="fill:white;fill-rule:nonzero;"/>
                <path d="M469.303,486.854C469.783,486.333 468.113,484.169 465.307,482.217C462.5,480.267 459.568,479.366 459.019,479.999C458.47,480.633 460.565,482.458 463.441,484.298C466.316,486.138 468.823,487.376 469.303,486.854Z" style="fill:white;fill-rule:nonzero;"/>
                <path d="M503.49,477.558C504.227,477.759 506.092,474.222 507.902,469.705C509.714,465.187 510.617,461.34 509.672,461.064C508.73,460.789 506.465,464.255 504.862,468.848C503.258,473.44 502.755,477.355 503.49,477.558Z" style="fill:white;fill-rule:nonzero;"/>
                <path d="M518.236,475.631C521.175,472.251 523.214,469.257 522.431,468.754C521.65,468.251 518.461,470.541 515.669,474.042C512.877,477.542 511.423,480.822 512.057,481.203C512.692,481.587 515.297,479.012 518.236,475.631Z" style="fill:white;fill-rule:nonzero;"/>
                <path d="M529.304,479.999C528.755,479.366 525.823,480.267 523.017,482.217C520.21,484.169 518.541,486.333 519.02,486.854C519.5,487.376 522.008,486.138 524.883,484.298C527.759,482.458 529.853,480.633 529.304,479.999Z" style="fill:white;fill-rule:nonzero;"/>
            </g>
        </g>
    </g>
</svg>
