<?xml version="1.0" encoding="UTF-8" standalone="no"?>
<!DOCTYPE svg PUBLIC "-//W3C//DTD SVG 1.1//EN" "http://www.w3.org/Graphics/SVG/1.1/DTD/svg11.dtd">
<svg width="100%" height="100%" viewBox="0 0 296 296" version="1.1" xmlns="http://www.w3.org/2000/svg" xmlns:xlink="http://www.w3.org/1999/xlink" xml:space="preserve" xmlns:serif="http://www.serif.com/" style="fill-rule:evenodd;clip-rule:evenodd;stroke-linejoin:round;stroke-miterlimit:2;">
    <g transform="matrix(1,0,0,1,-101.481,-112.927)">
        <g>
            <g transform="matrix(1,0,0,1,-168.432,-125.655)">
                <circle cx="417.426" cy="386.096" r="147.513" style="fill:rgb(0,98,255);"/>
            </g>
            <g transform="matrix(1.67441,0,0,1.67441,68.4505,-919.793)">
                <path d="M149.503,690.809C144.847,690.809 140.536,692.524 136.995,695.437C135.58,679.906 124.362,667.81 110.733,667.81C98.692,667.81 88.535,677.252 85.355,690.162C83.212,688.94 80.807,688.254 78.264,688.254C69.298,688.254 62.029,696.771 62.029,707.277C62.029,707.392 62.036,707.503 62.036,707.617C61.093,707.396 60.119,707.277 59.121,707.277C50.958,707.277 44.341,715.032 44.341,724.599C44.341,734.165 50.958,741.919 59.121,741.919L101.63,741.919L101.63,714.621L94.355,714.621L113.397,685.416L132.44,714.621L125.167,714.621L125.167,741.919L149.503,741.919C161.545,741.919 171.31,730.478 171.31,716.364C171.31,702.251 161.545,690.809 149.503,690.809Z" style="fill:white;fill-rule:nonzero;"/>
            </g>
        </g>
    </g>
</svg>
